<svg xmlns="http://www.w3.org/2000/svg" xmlns:xlink="http://www.w3.org/1999/xlink" viewBox="0 0 800 800" width="800" height="800" preserveAspectRatio="xMidYMid meet" style="width: 100%; height: 100%; transform: translate3d(0px, 0px, 0px); content-visibility: visible;"><defs><clipPath id="__lottie_element_197"><rect width="800" height="800" x="0" y="0"></rect></clipPath></defs><g clip-path="url(#__lottie_element_197)"><g id="SpcMeSqp8K" transform="matrix(1,0,0,1,46.5,24.5)" opacity="1" style="display: block;"><g id="sDzKjfM60I" opacity="1" transform="matrix(1,0,0,1,312.0780029296875,177.18499755859375)"><path stroke-linecap="butt" stroke-linejoin="miter" fill-opacity="0" stroke-miterlimit="10" id="eZ9yojmWHi" stroke="rgb(255,195,18)" stroke-opacity="1" stroke-width="4.829" d="M0 0"></path></g></g><g id="GHUjpJVynz" transform="matrix(1,0,0,1,46.5,24.5)" opacity="1" style="display: block;"><g id="jelP81-3QH" opacity="1" transform="matrix(1,0,0,1,312.0780029296875,177.18499755859375)"><path stroke-linecap="butt" stroke-linejoin="miter" fill-opacity="0" stroke-miterlimit="10" id="v_WCb4U15Y" stroke="rgb(255,195,18)" stroke-opacity="1" stroke-width="4.829" d="M0 0"></path></g></g><g id="6NDpHvz1XZ" transform="matrix(1,0,0,1,46.5,24.5)" opacity="1" style="display: block;"><g id="0EaBl-c0yx" opacity="1" transform="matrix(1,0,0,1,312.0780029296875,177.18499755859375)"><path stroke-linecap="butt" stroke-linejoin="miter" fill-opacity="0" stroke-miterlimit="10" id="WhxsG2Oy9V" stroke="rgb(231,82,156)" stroke-opacity="1" stroke-width="4.829" d="M0 0"></path></g></g><g id="PVmMCw5Plx" transform="matrix(1,0,0,1,46.5,24.5)" opacity="1" style="display: block;"><g id="mHC4gPbl4m" opacity="1" transform="matrix(1,0,0,1,312.0780029296875,177.18499755859375)"><path stroke-linecap="butt" stroke-linejoin="miter" fill-opacity="0" stroke-miterlimit="10" id="NMAm7eb-xG" stroke="rgb(231,82,156)" stroke-opacity="1" stroke-width="4.829" d="M0 0"></path></g></g><g id="51FQ9YnWqR" transform="matrix(1,0,0,1,46.5,24.5)" opacity="1" style="display: block;"><g id="FInxaOHp6O" opacity="1" transform="matrix(1,0,0,1,312.0780029296875,177.18499755859375)"><path stroke-linecap="butt" stroke-linejoin="miter" fill-opacity="0" stroke-miterlimit="10" id="Ns8NOeB9SW" stroke="rgb(0,185,185)" stroke-opacity="1" stroke-width="4.829" d="M0 0"></path></g></g><g id="7epu-l6Vzt" transform="matrix(1,0,0,1,46.5,24.5)" opacity="1" style="display: block;"><g id="PSyGxQUQ_j" opacity="1" transform="matrix(1,0,0,1,312.0780029296875,177.18499755859375)"><path stroke-linecap="butt" stroke-linejoin="miter" fill-opacity="0" stroke-miterlimit="10" id="jb70Rn986B" stroke="rgb(0,185,185)" stroke-opacity="1" stroke-width="4.829" d="M0 0"></path></g></g><g id="B6x904AP5g" transform="matrix(1,0,0,1,46.5,24.5)" opacity="1" style="display: block;"><g id="_-tMIO-1pn" opacity="1" transform="matrix(1,0,0,1,312.0780029296875,177.18499755859375)"><path stroke-linecap="butt" stroke-linejoin="miter" fill-opacity="0" stroke-miterlimit="10" id="wLqC6VJ-Ni" stroke="rgb(231,82,156)" stroke-opacity="1" stroke-width="4.829" d="M0 0"></path></g></g><g id="n-p_logx5U" transform="matrix(1,0,0,1,46.5,24.5)" opacity="1" style="display: block;"><g id="5b5Jo4gvD5" opacity="1" transform="matrix(1,0,0,1,312.0780029296875,177.18499755859375)"><path stroke-linecap="butt" stroke-linejoin="miter" fill-opacity="0" stroke-miterlimit="10" id="60pv95sLUk" stroke="rgb(171,222,222)" stroke-opacity="1" stroke-width="4.829" d="M0 0"></path></g></g><g id="aDJ2mUIE6k" transform="matrix(1,0,0,1,182.1529998779297,96.83358764648438)" opacity="1" style="display: block;"><g id="fLKYvjeuWJ" opacity="0.9336182169408808" transform="matrix(0.08495939522981644,-0.9963844418525696,0.9963844418525696,0.08495939522981644,3.960010051727295,38.66497802734375)"><path fill-rule="evenodd" id="CvPCX4gMNL" fill="rgb(227,231,235)" fill-opacity="1" d=" M11.888999938964844,12.65999984741211 C11.888999938964844,12.65999984741211 -8.562000274658203,10.515999794006348 -8.562000274658203,10.515999794006348 C-8.562000274658203,10.515999794006348 -11.888999938964844,-12.65999984741211 -11.888999938964844,-12.65999984741211 C-11.888999938964844,-12.65999984741211 8.562000274658203,-10.515000343322754 8.562000274658203,-10.515000343322754 C8.562000274658203,-10.515000343322754 11.888999938964844,12.65999984741211 11.888999938964844,12.65999984741211z"></path></g><g id="7DalUJuN9r" opacity="1" transform="matrix(0.8836377263069153,-0.46817126870155334,0.46817126870155334,0.8836377263069153,218.62338256835938,73.85555267333984)"><path fill-rule="evenodd" id="kXez5oGukf" fill="rgb(227,231,235)" fill-opacity="1" d=" M11.888999938964844,12.659000396728516 C11.888999938964844,12.659000396728516 -8.562999725341797,10.515000343322754 -8.562999725341797,10.515000343322754 C-8.562999725341797,10.515000343322754 -11.888999938964844,-12.659000396728516 -11.888999938964844,-12.659000396728516 C-11.888999938964844,-12.659000396728516 8.562000274658203,-10.515999794006348 8.562000274658203,-10.515999794006348 C8.562000274658203,-10.515999794006348 11.888999938964844,12.659000396728516 11.888999938964844,12.659000396728516z"></path></g><g id="a9LT0rQjHM" opacity="0.9903831077197017" transform="matrix(-0.5948324203491211,0.8038497567176819,-0.8038497567176819,-0.5948324203491211,436.0591125488281,222.94491577148438)"><path fill-rule="evenodd" id="j18eVRCtLN" fill="rgb(227,231,235)" fill-opacity="1" d=" M7.210000038146973,-15.798999786376953 C7.210000038146973,-15.798999786376953 12.97599983215332,3.937999963760376 12.97599983215332,3.937999963760376 C12.97599983215332,3.937999963760376 -7.209000110626221,15.798999786376953 -7.209000110626221,15.798999786376953 C-7.209000110626221,15.798999786376953 -12.97599983215332,-3.937999963760376 -12.97599983215332,-3.937999963760376 C-12.97599983215332,-3.937999963760376 7.210000038146973,-15.798999786376953 7.210000038146973,-15.798999786376953z"></path></g><g id="gMPji9FRQz" opacity="1" transform="matrix(-0.6520286798477173,0.7581943273544312,-0.7581943273544312,-0.6520286798477173,371.5430603027344,167.8323211669922)"><path fill-rule="evenodd" id="buP2H7-PCp" fill="rgb(227,231,235)" fill-opacity="1" d=" M16.461999893188477,-5.5289998054504395 C16.461999893188477,-5.5289998054504395 5.98799991607666,12.166000366210938 5.98799991607666,12.166000366210938 C5.98799991607666,12.166000366210938 -16.461999893188477,5.5289998054504395 -16.461999893188477,5.5289998054504395 C-16.461999893188477,5.5289998054504395 -5.989999771118164,-12.166000366210938 -5.989999771118164,-12.166000366210938 C-5.989999771118164,-12.166000366210938 16.461999893188477,-5.5289998054504395 16.461999893188477,-5.5289998054504395z"></path></g><g id="1YvAwO3cFQ" opacity="1" transform="matrix(0.49344512820243835,-0.8697769045829773,0.8697769045829773,0.49344512820243835,278.6926574707031,58.905269622802734)"><path fill-rule="evenodd" id="kmKR_XmdwS" fill="rgb(255,195,18)" fill-opacity="1" d=" M12.71399974822998,-4.269999980926514 C12.71399974822998,-4.269999980926514 4.625,9.395999908447266 4.625,9.395999908447266 C4.625,9.395999908447266 -12.71399974822998,4.269999980926514 -12.71399974822998,4.269999980926514 C-12.71399974822998,4.269999980926514 -4.625,-9.395999908447266 -4.625,-9.395999908447266 C-4.625,-9.395999908447266 12.71399974822998,-4.269999980926514 12.71399974822998,-4.269999980926514z"></path></g><g id="o16mvozW-w" opacity="1" transform="matrix(-0.5287560820579529,-0.8487738370895386,0.8487738370895386,-0.5287560820579529,182.48855590820312,57.510459899902344)"><path fill-rule="evenodd" id="L1R13L5mnw" fill="rgb(166,218,222)" fill-opacity="1" d=" M5.635000228881836,-8.958000183105469 C5.635000228881836,-8.958000183105469 7.51800012588501,3.430000066757202 7.51800012588501,3.430000066757202 C7.51800012588501,3.430000066757202 -5.635000228881836,8.958000183105469 -5.635000228881836,8.958000183105469 C-5.635000228881836,8.958000183105469 -7.51800012588501,-3.430999994277954 -7.51800012588501,-3.430999994277954 C-7.51800012588501,-3.430999994277954 5.635000228881836,-8.958000183105469 5.635000228881836,-8.958000183105469z"></path></g><g id="Uajetr5RLo" opacity="1" transform="matrix(-0.14920133352279663,-0.9888068437576294,0.9888068437576294,-0.14920133352279663,362.3100280761719,203.2245635986328)"><path fill-rule="evenodd" id="FNWwcZMsvQ" fill="rgb(231,82,156)" fill-opacity="1" d=" M10.031999588012695,-3.36899995803833 C10.031999588012695,-3.36899995803833 3.6489999294281006,7.414000034332275 3.6489999294281006,7.414000034332275 C3.6489999294281006,7.414000034332275 -10.031999588012695,3.369999885559082 -10.031999588012695,3.369999885559082 C-10.031999588012695,3.369999885559082 -3.6500000953674316,-7.414000034332275 -3.6500000953674316,-7.414000034332275 C-3.6500000953674316,-7.414000034332275 10.031999588012695,-3.36899995803833 10.031999588012695,-3.36899995803833z"></path></g><g id="1Svmqxdh7f" opacity="1" transform="matrix(0.29678162932395935,-0.9549453854560852,0.9549453854560852,0.29678162932395935,272.78021240234375,100.91143798828125)"><path fill-rule="evenodd" id="nZ0SXov5E8" fill="rgb(231,82,156)" fill-opacity="1" d=" M5.439000129699707,-9.079000473022461 C5.439000129699707,-9.079000473022461 7.591000080108643,3.2660000324249268 7.591000080108643,3.2660000324249268 C7.591000080108643,3.2660000324249268 -5.438000202178955,9.079000473022461 -5.438000202178955,9.079000473022461 C-5.438000202178955,9.079000473022461 -7.591000080108643,-3.265000104904175 -7.591000080108643,-3.265000104904175 C-7.591000080108643,-3.265000104904175 5.439000129699707,-9.079000473022461 5.439000129699707,-9.079000473022461z"></path></g><g id="U72Ec3YYhj" opacity="1" transform="matrix(-0.971060037612915,-0.23883551359176636,0.23883551359176636,-0.971060037612915,107.64863586425781,89.22081756591797)"><path fill-rule="evenodd" id="TbblEExJ8S" fill="rgb(255,195,18)" fill-opacity="1" d=" M10.031999588012695,-3.36899995803833 C10.031999588012695,-3.36899995803833 3.6500000953674316,7.414000034332275 3.6500000953674316,7.414000034332275 C3.6500000953674316,7.414000034332275 -10.031999588012695,3.369999885559082 -10.031999588012695,3.369999885559082 C-10.031999588012695,3.369999885559082 -3.6500000953674316,-7.414000034332275 -3.6500000953674316,-7.414000034332275 C-3.6500000953674316,-7.414000034332275 10.031999588012695,-3.36899995803833 10.031999588012695,-3.36899995803833z"></path></g><g id="G0pH7zpa7o" opacity="1" transform="matrix(-0.9988920092582703,0.047061119228601456,-0.047061119228601456,-0.9988920092582703,63.765567779541016,228.11802673339844)"><path fill-rule="evenodd" id="DiQxh_5PpH" fill="rgb(231,82,156)" fill-opacity="1" d=" M1.090999960899353,10.526000022888184 C1.090999960899353,10.526000022888184 -8.034000396728516,1.937999963760376 -8.034000396728516,1.937999963760376 C-8.034000396728516,1.937999963760376 -1.090999960899353,-10.526000022888184 -1.090999960899353,-10.526000022888184 C-1.090999960899353,-10.526000022888184 8.034000396728516,-1.937999963760376 8.034000396728516,-1.937999963760376 C8.034000396728516,-1.937999963760376 1.090999960899353,10.526000022888184 1.090999960899353,10.526000022888184z"></path></g></g><g id="_qeZ69zsV8" transform="matrix(1,0,0,1,250.00999450683594,210.0179901123047)" opacity="1" style="display: block;"><g id="UkRWSTyygR" opacity="1" transform="matrix(1,0,0,1,146.20899963378906,184.70899963378906)"><path stroke-linecap="butt" stroke-linejoin="miter" fill-opacity="0" stroke-miterlimit="10" id="VXXThPLNTH" stroke="rgb(240,240,240)" stroke-opacity="0.2" stroke-width="15" d=" M136.5,-162.5 C136.5,-162.5 136.5,162.5 136.5,162.5 C136.5,169.122802734375 131.122802734375,174.5 124.5,174.5 C124.5,174.5 -124.5,174.5 -124.5,174.5 C-131.122802734375,174.5 -136.5,169.122802734375 -136.5,162.5 C-136.5,162.5 -136.5,-162.5 -136.5,-162.5 C-136.5,-169.122802734375 -131.122802734375,-174.5 -124.5,-174.5 C-124.5,-174.5 124.5,-174.5 124.5,-174.5 C131.122802734375,-174.5 136.5,-169.122802734375 136.5,-162.5z"></path><path fill-rule="evenodd" id="vzFKuIaHdc" fill="rgb(240,240,240)" fill-opacity="1" d=" M136.5,-162.5 C136.5,-162.5 136.5,162.5 136.5,162.5 C136.5,169.122802734375 131.122802734375,174.5 124.5,174.5 C124.5,174.5 -124.5,174.5 -124.5,174.5 C-131.122802734375,174.5 -136.5,169.122802734375 -136.5,162.5 C-136.5,162.5 -136.5,-162.5 -136.5,-162.5 C-136.5,-169.122802734375 -131.122802734375,-174.5 -124.5,-174.5 C-124.5,-174.5 124.5,-174.5 124.5,-174.5 C131.122802734375,-174.5 136.5,-169.122802734375 136.5,-162.5z"></path><path stroke-linecap="butt" stroke-linejoin="miter" fill-opacity="0" stroke-miterlimit="10" id="5kiLNMhdCs" stroke="rgb(255,255,255)" stroke-opacity="1" stroke-width="3.622" d=" M136.5,-162.5 C136.5,-162.5 136.5,162.5 136.5,162.5 C136.5,169.122802734375 131.122802734375,174.5 124.5,174.5 C124.5,174.5 -124.5,174.5 -124.5,174.5 C-131.122802734375,174.5 -136.5,169.122802734375 -136.5,162.5 C-136.5,162.5 -136.5,-162.5 -136.5,-162.5 C-136.5,-169.122802734375 -131.122802734375,-174.5 -124.5,-174.5 C-124.5,-174.5 124.5,-174.5 124.5,-174.5 C131.122802734375,-174.5 136.5,-169.122802734375 136.5,-162.5z"></path></g><g id="rfDkXlWjLL" opacity="1" transform="matrix(1,0,0,1,69.84300231933594,268.4809875488281)"><path stroke-linecap="round" stroke-linejoin="round" fill-opacity="0" id="o-iXYamaZc" stroke="rgb(0,185,185)" stroke-opacity="1" stroke-width="4.829" d=" M-21.27899932861328,1.1690000295639038 C-21.27899932861328,1.1690000295639038 -6.565000057220459,14.600000381469727 -6.565000057220459,14.600000381469727 C-6.565000057220459,14.600000381469727 21.27899932861328,-14.600000381469727 21.27899932861328,-14.600000381469727"></path></g><g id="9CRQ7Ux6BD" opacity="1" transform="matrix(1,0,0,1,0,0)"><path stroke-linecap="butt" stroke-linejoin="miter" fill-opacity="0" stroke-miterlimit="10" id="iviqVLGp1k" stroke="rgb(222,222,218)" stroke-opacity="1" stroke-width="4.829" d=" M109.68299865722656,270.9330139160156 C109.68299865722656,270.9330139160156 245.5019989013672,270.9330139160156 245.5019989013672,270.9330139160156"></path></g><g id="aKhSPfWvAt" opacity="1" transform="matrix(1,0,0,1,69.84300231933594,208.8209991455078)"><path stroke-linecap="round" stroke-linejoin="round" fill-opacity="0" id="Ejz6x020_f" stroke="rgb(0,185,185)" stroke-opacity="1" stroke-width="4.829" d=" M-21.27899932861328,1.1690000295639038 C-21.27899932861328,1.1690000295639038 -6.565000057220459,14.600000381469727 -6.565000057220459,14.600000381469727 C-6.565000057220459,14.600000381469727 21.27899932861328,-14.600000381469727 21.27899932861328,-14.600000381469727"></path></g><g id="XbUmCWFyt2" opacity="1" transform="matrix(1,0,0,1,0,0)"><path stroke-linecap="butt" stroke-linejoin="miter" fill-opacity="0" stroke-miterlimit="10" id="R7P3rafHVh" stroke="rgb(222,222,218)" stroke-opacity="1" stroke-width="4.829" d=" M109.68299865722656,211.2729949951172 C109.68299865722656,211.2729949951172 245.5019989013672,211.2729949951172 245.5019989013672,211.2729949951172"></path></g><g id="pYR1O2YtZg" opacity="1" transform="matrix(1,0,0,1,69.84300231933594,149.16099548339844)"><path stroke-linecap="round" stroke-linejoin="round" fill-opacity="0" id="5dZ2H8CWMq" stroke="rgb(0,185,185)" stroke-opacity="1" stroke-width="4.829" d=" M-21.27899932861328,1.1690000295639038 C-21.27899932861328,1.1690000295639038 -6.565000057220459,14.600000381469727 -6.565000057220459,14.600000381469727 C-6.565000057220459,14.600000381469727 21.27899932861328,-14.600000381469727 21.27899932861328,-14.600000381469727"></path></g><g id="VOLdzrT7dr" opacity="1" transform="matrix(1,0,0,1,0,0)"><path stroke-linecap="butt" stroke-linejoin="miter" fill-opacity="0" stroke-miterlimit="10" id="dBrE2yRqbd" stroke="rgb(222,222,218)" stroke-opacity="1" stroke-width="4.829" d=" M109.68299865722656,151.61399841308594 C109.68299865722656,151.61399841308594 245.5019989013672,151.61399841308594 245.5019989013672,151.61399841308594"></path></g><g id="rQHUwPQ8Oz" opacity="1" transform="matrix(1,0,0,1,69.84300231933594,89.50199890136719)"><path stroke-linecap="round" stroke-linejoin="round" fill-opacity="0" id="nIJpwYedGL" stroke="rgb(0,185,185)" stroke-opacity="1" stroke-width="4.829" d=" M-21.27899932861328,1.1690000295639038 C-21.27899932861328,1.1690000295639038 -6.565000057220459,14.600000381469727 -6.565000057220459,14.600000381469727 C-6.565000057220459,14.600000381469727 21.27899932861328,-14.600000381469727 21.27899932861328,-14.600000381469727"></path></g><g id="4_Firfp6vV" opacity="1" transform="matrix(1,0,0,1,0,0)"><path stroke-linecap="butt" stroke-linejoin="miter" fill-opacity="0" stroke-miterlimit="10" id="ugLn_noJsn" stroke="rgb(222,222,218)" stroke-opacity="1" stroke-width="4.829" d=" M109.68299865722656,91.9540023803711 C109.68299865722656,91.9540023803711 245.5019989013672,91.9540023803711 245.5019989013672,91.9540023803711"></path></g></g></g></svg>