<svg xmlns="http://www.w3.org/2000/svg" xmlns:xlink="http://www.w3.org/1999/xlink" viewBox="0 0 512 512" width="512" height="512" preserveAspectRatio="xMidYMid meet" style="width: 100%; height: 100%; transform: translate3d(0px, 0px, 0px); content-visibility: visible;"><defs><clipPath id="__lottie_element_37"><rect width="512" height="512" x="0" y="0"></rect></clipPath></defs><g clip-path="url(#__lottie_element_37)"><g style="display: block;" transform="matrix(0.16526663303375244,0,0,0.16526663303375244,80.49397277832031,326.768798828125)" opacity="0.330533255411792"><g opacity="1" transform="matrix(1,0,0,1,0,0)"><path fill="rgb(255,204,61)" fill-opacity="1" d=" M-200.21499633789062,7.6620001792907715 C-200.21499633789062,7.6620001792907715 -203.89100646972656,13.753999710083008 -203.89100646972656,13.753999710083008 C-205.62399291992188,16.597999572753906 -209.32000732421875,17.51300048828125 -212.16000366210938,15.800000190734863 C-212.16000366210938,15.800000190734863 -218.2519989013672,12.125 -218.2519989013672,12.125 C-221.0919952392578,10.41100025177002 -222.0070037841797,6.714000225067139 -220.29400634765625,3.874000072479248 C-220.29400634765625,3.874000072479248 -216.6230010986328,-2.23799991607666 -216.6230010986328,-2.23799991607666 C-214.91000366210938,-5.078000068664551 -211.21200561523438,-5.992000102996826 -208.35299682617188,-4.283999919891357 C-208.35299682617188,-4.283999919891357 -202.25599670410156,-0.5889999866485596 -202.25599670410156,-0.5889999866485596 C-199.41600036621094,1.1239999532699585 -198.5019989013672,4.821000099182129 -200.21499633789062,7.6620001792907715z"></path></g></g><g style="display: block;" transform="matrix(0.8319332599639893,0,0,0.8319332599639893,220.28817749023438,198.86856079101562)" opacity="0.31512507305144494"><g opacity="1" transform="matrix(1,0,0,1,0,0)"><path fill="rgb(255,204,61)" fill-opacity="1" d=" M-208.1959991455078,-73.64199829101562 C-208.1959991455078,-73.64199829101562 -211.38099670410156,-71.63999938964844 -211.38099670410156,-71.63999938964844 C-212.87600708007812,-70.70899963378906 -214.84100341796875,-71.15599822998047 -215.7740020751953,-72.64099884033203 C-215.7740020751953,-72.64099884033203 -217.7760009765625,-75.8270034790039 -217.7760009765625,-75.8270034790039 C-218.70899963378906,-77.31199645996094 -218.26199340820312,-79.2760009765625 -216.77699279785156,-80.20899963378906 C-216.77699279785156,-80.20899963378906 -213.58900451660156,-82.22200012207031 -213.58900451660156,-82.22200012207031 C-212.10400390625,-83.15499877929688 -210.13999938964844,-82.70700073242188 -209.1959991455078,-81.22000122070312 C-209.1959991455078,-81.22000122070312 -207.1959991455078,-78.02400207519531 -207.1959991455078,-78.02400207519531 C-206.26300048828125,-76.53900146484375 -206.71099853515625,-74.57599639892578 -208.1959991455078,-73.64199829101562z"></path></g></g><g style="display: block;" transform="matrix(0.49859991669654846,0,0,0.49859991669654846,185.7718963623047,267.34197998046875)" opacity="0.9971999220784586"><g opacity="1" transform="matrix(1,0,0,1,0,0)"><path fill="rgb(255,204,61)" fill-opacity="1" d=" M-133.00100708007812,-62.970001220703125 C-133.00100708007812,-62.970001220703125 -138.2449951171875,-59.67399978637695 -138.2449951171875,-59.67399978637695 C-140.70599365234375,-58.141998291015625 -143.93899536132812,-58.87900161743164 -145.47500610351562,-61.323001861572266 C-145.47500610351562,-61.323001861572266 -148.77200317382812,-66.56700134277344 -148.77200317382812,-66.56700134277344 C-150.30799865722656,-69.01200103759766 -149.57000732421875,-72.24500274658203 -147.12600708007812,-73.78099822998047 C-147.12600708007812,-73.78099822998047 -141.8780059814453,-77.09400177001953 -141.8780059814453,-77.09400177001953 C-139.4340057373047,-78.62999725341797 -136.20199584960938,-77.89299774169922 -134.6479949951172,-75.44499969482422 C-134.6479949951172,-75.44499969482422 -131.3560028076172,-70.18399810791016 -131.3560028076172,-70.18399810791016 C-129.82000732421875,-67.73999786376953 -130.55599975585938,-64.50700378417969 -133.00100708007812,-62.970001220703125z"></path></g></g><g style="display: none;" transform="matrix(0.9988332390785217,0,0,0.9988332390785217,255.8994140625,221.9454803466797)" opacity="0.002500240870887751"><g opacity="1" transform="matrix(1,0,0,1,0,0)"><path fill="rgb(255,204,61)" fill-opacity="1" d=" M-81.90399932861328,-142.4340057373047 C-81.90399932861328,-142.4340057373047 -85.08999633789062,-140.4320068359375 -85.08999633789062,-140.4320068359375 C-86.58499908447266,-139.50100708007812 -88.54900360107422,-139.94900512695312 -89.48200225830078,-141.4340057373047 C-89.48200225830078,-141.4340057373047 -91.48500061035156,-144.6199951171875 -91.48500061035156,-144.6199951171875 C-92.41799926757812,-146.10499572753906 -91.97000122070312,-148.06900024414062 -90.48500061035156,-149.0019989013672 C-90.48500061035156,-149.0019989013672 -87.2969970703125,-151.01400756835938 -87.2969970703125,-151.01400756835938 C-85.81199645996094,-151.94700622558594 -83.8489990234375,-151.5 -82.90499877929688,-150.01300048828125 C-82.90499877929688,-150.01300048828125 -80.90499877929688,-146.81700134277344 -80.90499877929688,-146.81700134277344 C-79.97200012207031,-145.33200073242188 -80.41899871826172,-143.3679962158203 -81.90399932861328,-142.4340057373047z"></path></g></g><g transform="matrix(0.9954484701156616,0.09530119597911835,-0.09530119597911835,0.9954484701156616,257.78924560546875,254.92413330078125)" opacity="1" style="display: block;"><g opacity="1" transform="matrix(1,0,0,1,0,0)"><path fill="rgb(255,255,255)" fill-opacity="1" d=" M160.8679962158203,5.728000164031982 C154.9969940185547,10.472999572753906 141.9929962158203,17.47100067138672 136.2469940185547,20.483999252319336 C136.2469940185547,20.483999252319336 72.8010025024414,82.85600280761719 72.8010025024414,82.85600280761719 C65.77200317382812,90.46900177001953 55.91699981689453,94.83699798583984 45.5620002746582,94.9209976196289 C45.5620002746582,94.9209976196289 45.20800018310547,94.9209976196289 45.20800018310547,94.9209976196289 C33.25699996948242,94.9209976196289 21.9950008392334,89.19599914550781 14.944999694824219,79.51899719238281 C14.944999694824219,79.51899719238281 -12.930000305175781,34.124000549316406 -12.930000305175781,34.124000549316406 C-12.930000305175781,34.124000549316406 26.113000869750977,9.232000350952148 26.113000869750977,9.232000350952148 C26.916000366210938,9.336000442504883 49.191001892089844,35.145999908447266 49.191001892089844,35.145999908447266 C49.191001892089844,35.145999908447266 112.11599731445312,-20.06100082397461 112.11599731445312,-20.06100082397461 C116.99600219726562,-33.90999984741211 124.69599914550781,-35.46699905395508 129.97900390625,-33.189998626708984 C130.82400512695312,-34.7859992980957 136.6999969482422,-43.41899871826172 145.43299865722656,-43.4010009765625 C149.80499267578125,-43.391998291015625 161.1179962158203,-39.41600036621094 165.4669952392578,-34.180999755859375 C171.9010009765625,-26.422000885009766 168.52200317382812,-0.4560000002384186 160.8679962158203,5.728000164031982z"></path><path stroke-linecap="round" stroke-linejoin="round" fill-opacity="0" stroke="rgb(3,0,71)" stroke-opacity="1" stroke-width="1.656" d=" M160.8679962158203,5.728000164031982 C154.9969940185547,10.472999572753906 141.9929962158203,17.47100067138672 136.2469940185547,20.483999252319336 C136.2469940185547,20.483999252319336 72.8010025024414,82.85600280761719 72.8010025024414,82.85600280761719 C65.77200317382812,90.46900177001953 55.91699981689453,94.83699798583984 45.5620002746582,94.9209976196289 C45.5620002746582,94.9209976196289 45.20800018310547,94.9209976196289 45.20800018310547,94.9209976196289 C33.25699996948242,94.9209976196289 21.9950008392334,89.19599914550781 14.944999694824219,79.51899719238281 C14.944999694824219,79.51899719238281 -12.930000305175781,34.124000549316406 -12.930000305175781,34.124000549316406 C-12.930000305175781,34.124000549316406 26.113000869750977,9.232000350952148 26.113000869750977,9.232000350952148 C26.916000366210938,9.336000442504883 49.191001892089844,35.145999908447266 49.191001892089844,35.145999908447266 C49.191001892089844,35.145999908447266 112.11599731445312,-20.06100082397461 112.11599731445312,-20.06100082397461 C116.99600219726562,-33.90999984741211 124.69599914550781,-35.46699905395508 129.97900390625,-33.189998626708984 C130.82400512695312,-34.7859992980957 136.6999969482422,-43.41899871826172 145.43299865722656,-43.4010009765625 C149.80499267578125,-43.391998291015625 161.1179962158203,-39.41600036621094 165.4669952392578,-34.180999755859375 C171.9010009765625,-26.422000885009766 168.52200317382812,-0.4560000002384186 160.8679962158203,5.728000164031982z"></path></g><g opacity="1" transform="matrix(1,0,0,1,0,0)"><g opacity="1" transform="matrix(1,0,0,1,0,0)"><g opacity="1" transform="matrix(1,0,0,1,0,0)"><path fill="rgb(255,204,61)" fill-opacity="1" d=" M168.47999572753906,26.667999267578125 C168.47999572753906,26.667999267578125 152.52499389648438,27.534000396728516 152.52499389648438,27.534000396728516 C152.52499389648438,27.534000396728516 134.03599548339844,-12.303000450134277 134.03599548339844,-12.303000450134277 C134.0260009765625,-12.303000450134277 134.0260009765625,-12.312999725341797 134.03599548339844,-12.324000358581543 C134.03599548339844,-12.324000358581543 133.01400756835938,-14.52400016784668 133.01400756835938,-14.52400016784668 C133.00399780273438,-14.545000076293945 132.9929962158203,-14.555999755859375 132.98300170898438,-14.576000213623047 C132.98300170898438,-14.576000213623047 131.4499969482422,-17.881000518798828 131.4499969482422,-17.881000518798828 C131.4499969482422,-17.881000518798828 121.43800354003906,-39.45800018310547 121.43800354003906,-39.45800018310547 C121.43800354003906,-39.45800018310547 133.01400756835938,-45.152000427246094 133.01400756835938,-45.152000427246094 C133.01400756835938,-45.152000427246094 168.47999572753906,26.667999267578125 168.47999572753906,26.667999267578125z"></path></g></g><g opacity="1" transform="matrix(1,0,0,1,0,0)"><path fill="rgb(255,204,61)" fill-opacity="1" d=" M221.33999633789062,38.696998596191406 C221.33999633789062,38.696998596191406 133.70199584960938,82.06800079345703 133.70199584960938,82.06800079345703 C133.70199584960938,82.06800079345703 126.98400115966797,56.53499984741211 126.98400115966797,56.53499984741211 C126.98400115966797,56.53499984741211 123.50900268554688,43.316001892089844 123.50900268554688,43.316001892089844 C123.50900268554688,43.316001892089844 200.8249969482422,1.2519999742507935 200.8249969482422,1.2519999742507935 C200.8249969482422,1.2519999742507935 206.38499450683594,11.404999732971191 206.38499450683594,11.404999732971191 C206.38499450683594,11.404999732971191 221.33999633789062,38.696998596191406 221.33999633789062,38.696998596191406z"></path></g><g opacity="1" transform="matrix(1,0,0,1,0,0)"><path fill="rgb(3,0,71)" fill-opacity="1" d=" M206.38499450683594,11.404999732971191 C206.38499450683594,11.404999732971191 126.98400115966797,56.53499984741211 126.98400115966797,56.53499984741211 C126.98400115966797,56.53499984741211 123.50900268554688,43.316001892089844 123.50900268554688,43.316001892089844 C123.50900268554688,43.316001892089844 200.8249969482422,1.2519999742507935 200.8249969482422,1.2519999742507935 C200.8249969482422,1.2519999742507935 206.38499450683594,11.404999732971191 206.38499450683594,11.404999732971191z"></path></g><g opacity="1" transform="matrix(1,0,0,1,0,0)"><path fill="rgb(3,0,71)" fill-opacity="1" d=" M131.4499969482422,-17.881000518798828 C131.4499969482422,-17.881000518798828 121.43800354003906,-39.45800018310547 121.43800354003906,-39.45800018310547 C121.43800354003906,-39.45800018310547 133.01400756835938,-45.152000427246094 133.01400756835938,-45.152000427246094 C133.01400756835938,-45.152000427246094 127.15399932861328,-29.72800064086914 131.4499969482422,-17.881000518798828z"></path></g></g><g opacity="1" transform="matrix(1,0,0,1,0,0)"><g opacity="1" transform="matrix(1,0,0,1,0,0)"><path fill="rgb(255,204,61)" fill-opacity="1" d=" M139.3560028076172,-65.84500122070312 C138.2760009765625,-65.66100311279297 137.1269989013672,-65.96199798583984 136.25900268554688,-66.76200103759766 C134.7740020751953,-68.13200378417969 134.68099975585938,-70.4469985961914 136.05099487304688,-71.93199920654297 C164.60899353027344,-102.88700103759766 172.1269989013672,-142.13299560546875 169.63900756835938,-168.5399932861328 C168.41400146484375,-181.5449981689453 164.9720001220703,-189.50999450683594 162.10499572753906,-191.63499450683594 C157.88099670410156,-194.76600646972656 153.64700317382812,-195.8280029296875 149.14500427246094,-194.875 C136.36599731445312,-192.17100524902344 126.18499755859375,-174.4459991455078 126.08300018310547,-174.26699829101562 C125.08699798583984,-172.50999450683594 122.85600280761719,-171.89199829101562 121.0989990234375,-172.88699340820312 C119.34200286865234,-173.88099670410156 118.72100067138672,-176.11000061035156 119.71399688720703,-177.8679962158203 C120.19200134277344,-178.71400451660156 131.5989990234375,-198.62600708007812 147.61000061035156,-202.0290069580078 C154.19500732421875,-203.4290008544922 160.5330047607422,-201.9080047607422 166.46200561523438,-197.51400756835938 C171.78900146484375,-193.5659942626953 175.6020050048828,-183.2550048828125 176.92300415039062,-169.2259979248047 C179.5590057373047,-141.2480010986328 171.6179962158203,-99.69400024414062 141.4290008544922,-66.97100067138672 C140.85899353027344,-66.35299682617188 140.125,-65.97599792480469 139.3560028076172,-65.84500122070312z"></path></g></g><g opacity="1" transform="matrix(1,0,0,1,0,0)"><g opacity="1" transform="matrix(1,0,0,1,0,0)"><path fill="rgb(255,204,61)" fill-opacity="1" d=" M107.52100372314453,-44.71799850463867 C108.27400207519531,-45.51300048828125 108.66300201416016,-46.637001037597656 108.4800033569336,-47.803001403808594 C108.16699981689453,-49.79899978637695 106.29499816894531,-51.16299819946289 104.29900360107422,-50.849998474121094 C62.69200134277344,-44.32600021362305 25.892000198364258,-59.900001525878906 5.327000141143799,-76.6510009765625 C-4.801000118255615,-84.9000015258789 -9.508000373840332,-92.19000244140625 -9.680000305175781,-95.75499725341797 C-9.932999610900879,-101.00700378417969 -8.461000442504883,-105.11599731445312 -5.165999889373779,-108.3280029296875 C4.186999797821045,-117.44499969482422 24.579999923706055,-116.052001953125 24.78499984741211,-116.03700256347656 C26.798999786376953,-115.88700103759766 28.554000854492188,-117.39900207519531 28.70400047302246,-119.41300201416016 C28.854999542236328,-121.427001953125 27.347999572753906,-123.18199920654297 25.333999633789062,-123.33399963378906 C24.364999771118164,-123.40699768066406 1.4730000495910645,-124.99700164794922 -10.258000373840332,-113.58200073242188 C-15.083000183105469,-108.88700103759766 -17.3439998626709,-102.7750015258789 -16.988000869750977,-95.40299987792969 C-16.66900062561035,-88.77999877929688 -10.218999862670898,-79.87699890136719 0.7070000171661377,-70.97799682617188 C22.4950008392334,-53.23099899291992 61.44900131225586,-36.724998474121094 105.43299865722656,-43.62200164794922 C106.26300048828125,-43.75199890136719 106.98400115966797,-44.1510009765625 107.52100372314453,-44.71799850463867z"></path></g></g><g opacity="1" transform="matrix(1,0,0,1,0,0)"><path fill="rgb(255,204,61)" fill-opacity="1" d=" M117.37899780273438,-194.45700073242188 C117.37899780273438,-194.45700073242188 163.2220001220703,-131.39700317382812 137.70599365234375,-48.555999755859375 C136.2030029296875,-43.676998138427734 132.75799560546875,-39.625999450683594 128.17799377441406,-37.37099838256836 C128.17799377441406,-37.37099838256836 128.17799377441406,-37.37099838256836 128.17799377441406,-37.37099838256836 C124.01899719238281,-35.32400131225586 119.25199890136719,-34.9109992980957 114.8030014038086,-36.2140007019043 C100.6780014038086,-40.35100173950195 68.9530029296875,-51.4900016784668 50.40999984741211,-72.35800170898438 C23.934999465942383,-102.15299987792969 15.871999740600586,-137.85499572753906 15.871999740600586,-137.85499572753906 C15.871999740600586,-137.85499572753906 117.37899780273438,-194.45700073242188 117.37899780273438,-194.45700073242188z"></path></g><g opacity="1" transform="matrix(1,0,0,1,0,0)"><path fill="rgb(3,0,71)" fill-opacity="1" d=" M117.37899780273438,-194.45700073242188 C119.60600280761719,-191.25100708007812 99.87699890136719,-172.4219970703125 71.84700012207031,-156.79200744628906 C43.81700134277344,-141.16200256347656 17.766000747680664,-134.26600646972656 15.871999740600586,-137.85499572753906 C13.109000205993652,-143.0919952392578 33.374000549316406,-159.88999938964844 61.40399932861328,-175.52000427246094 C89.43399810791016,-191.14999389648438 114.00199890136719,-199.3209991455078 117.37899780273438,-194.45700073242188z"></path></g><g opacity="1" transform="matrix(1,0,0,1,0,0)"><g opacity="1" transform="matrix(1,0,0,1,0,0)"><path fill="rgb(255,255,255)" fill-opacity="1" d=" M75.75399780273438,-92.99299621582031 C75.75399780273438,-92.99299621582031 74.48799896240234,-104.00900268554688 74.48799896240234,-104.00900268554688 C74.48799896240234,-104.00900268554688 68.18499755859375,-101.34100341796875 68.18499755859375,-101.34100341796875 C66.69000244140625,-100.70800018310547 65.60900115966797,-101.17900085449219 64.94300079345703,-102.75299835205078 C64.43599700927734,-103.947998046875 65.3479995727539,-105.04000091552734 67.6780014038086,-106.0260009765625 C67.6780014038086,-106.0260009765625 73.91000366210938,-108.66400146484375 73.91000366210938,-108.66400146484375 C73.5469970703125,-110.66300201416016 73.11599731445312,-113.41300201416016 72.61699676513672,-116.91400146484375 C72.46099853515625,-118.55500030517578 73.07599639892578,-119.66899871826172 74.46099853515625,-120.25499725341797 C74.98100280761719,-120.4749984741211 75.49700164794922,-120.44599914550781 76.01200103759766,-120.1729965209961 C76.52799987792969,-119.89900207519531 76.89099884033203,-119.51000213623047 77.10399627685547,-119.00599670410156 C77.37100219726562,-118.37699890136719 77.60600280761719,-117.2509994506836 77.80999755859375,-115.62999725341797 C78.1760025024414,-112.83499908447266 78.41000366210938,-111.16300201416016 78.51399993896484,-110.61199951171875 C78.51399993896484,-110.61199951171875 89.96499633789062,-115.45800018310547 89.96499633789062,-115.45800018310547 C89.69400024414062,-117.58899688720703 89.3499984741211,-120.44000244140625 88.93299865722656,-124.01200103759766 C88.7760009765625,-125.52400207519531 89.26300048828125,-126.51899719238281 90.39600372314453,-126.9990005493164 C91.71800231933594,-127.55899810791016 92.63899993896484,-127.2249984741211 93.15899658203125,-125.99700164794922 C93.61199951171875,-124.927001953125 94.05899810791016,-122.052001953125 94.49700164794922,-117.3759994506836 C94.49700164794922,-117.3759994506836 99.10199737548828,-119.3239974975586 99.10199737548828,-119.3239974975586 C100.70600128173828,-120.00399780273438 101.75800323486328,-119.75399780273438 102.25800323486328,-118.572998046875 C102.95700073242188,-116.9209976196289 102.41799926757812,-115.71800231933594 100.63899993896484,-114.96499633789062 C100.40399932861328,-114.86499786376953 100.03099822998047,-114.7249984741211 99.52100372314453,-114.5479965209961 C99.01200103759766,-114.36900329589844 98.63999938964844,-114.2300033569336 98.40399932861328,-114.12999725341797 C98.40399932861328,-114.12999725341797 94.95700073242188,-112.6709976196289 94.95700073242188,-112.6709976196289 C94.95700073242188,-112.6709976196289 96.60099792480469,-101.81500244140625 96.60099792480469,-101.81500244140625 C96.60099792480469,-101.81500244140625 101.41600036621094,-103.85399627685547 101.41600036621094,-103.85399627685547 C102.56600189208984,-104.33999633789062 103.41300201416016,-104.59600067138672 103.95899963378906,-104.62200164794922 C104.91000366210938,-104.65399932861328 105.58599853515625,-104.1969985961914 105.98600006103516,-103.25399780273438 C106.59700012207031,-101.80599975585938 106.22100067138672,-100.79100036621094 104.85199737548828,-100.21099853515625 C104.85199737548828,-100.21099853515625 97.24800109863281,-96.99500274658203 97.24800109863281,-96.99500274658203 C97.24800109863281,-96.99500274658203 98.37100219726562,-88.4219970703125 98.37100219726562,-88.4219970703125 C98.59200286865234,-86.71600341796875 98.03299713134766,-85.5790023803711 96.69499969482422,-85.01300048828125 C95.40499877929688,-84.46700286865234 94.49600219726562,-84.81700134277344 93.97100067138672,-86.05899810791016 C93.5780029296875,-86.98799896240234 93.26399993896484,-88.45099639892578 93.03099822998047,-90.44999694824219 C92.70899963378906,-93.22699737548828 92.5250015258789,-94.73600006103516 92.4800033569336,-94.97599792480469 C92.4800033569336,-94.97599792480469 80.6760025024414,-89.9800033569336 80.6760025024414,-89.9800033569336 C80.98300170898438,-87.93800354003906 81.3030014038086,-84.88300323486328 81.63300323486328,-80.81099700927734 C81.6510009765625,-79.5 81.11499786376953,-78.61499786376953 80.02899932861328,-78.15499877929688 C78.76899719238281,-77.62200164794922 77.87699890136719,-77.97699737548828 77.35199737548828,-79.22100067138672 C77.09200286865234,-79.83399963378906 76.89700317382812,-80.8010025024414 76.76599884033203,-82.11799621582031 C76.57099914550781,-84.11399841308594 76.37699890136719,-86.10199737548828 76.18900299072266,-88.08200073242188 C76.18900299072266,-88.08200073242188 71.68099975585938,-86.17400360107422 71.68099975585938,-86.17400360107422 C70.37300109863281,-85.62100219726562 69.38999938964844,-86.1240005493164 68.73100280761719,-87.68299865722656 C68.47200012207031,-88.2959976196289 68.52899932861328,-88.90499877929688 68.90399932861328,-89.50900268554688 C69.22000122070312,-90.03199768066406 69.7020034790039,-90.43199920654297 70.3479995727539,-90.70500183105469 C70.3479995727539,-90.70500183105469 75.75399780273438,-92.99299621582031 75.75399780273438,-92.99299621582031z M80.16899871826172,-94.86100006103516 C80.16899871826172,-94.86100006103516 91.9729995727539,-99.85700225830078 91.9729995727539,-99.85700225830078 C91.9729995727539,-99.85700225830078 90.49400329589844,-110.78299713134766 90.49400329589844,-110.78299713134766 C90.49400329589844,-110.78299713134766 78.9739990234375,-105.90699768066406 78.9739990234375,-105.90699768066406 C78.9739990234375,-105.90699768066406 80.16899871826172,-94.86100006103516 80.16899871826172,-94.86100006103516z"></path></g><g opacity="1" transform="matrix(1,0,0,1,0,0)"><path fill="rgb(255,255,255)" fill-opacity="1" d=" M130.281005859375,-99.97899627685547 C130.281005859375,-99.97899627685547 125.58399963378906,-97.98999786376953 125.58399963378906,-97.98999786376953 C125.58399963378906,-97.98999786376953 120.89800262451172,-96.03600311279297 120.89800262451172,-96.03600311279297 C119.7959976196289,-95.56999969482422 118.99600219726562,-95.31400299072266 118.49500274658203,-95.26899719238281 C117.5719985961914,-95.21299743652344 116.91799926757812,-95.64099884033203 116.53099822998047,-96.55400085449219 C115.85900115966797,-98.14399719238281 116.75800323486328,-99.46099853515625 119.22899627685547,-100.50700378417969 C119.22899627685547,-100.50700378417969 120.37300109863281,-100.96199798583984 120.37300109863281,-100.96199798583984 C120.37300109863281,-100.96199798583984 121.36000061035156,-101.32499694824219 121.36000061035156,-101.32499694824219 C121.04100036621094,-102.08100128173828 120.5,-103.16899871826172 119.73999786376953,-104.59300231933594 C118.9800033569336,-106.01499938964844 118.44499969482422,-107.09700012207031 118.13099670410156,-107.83699798583984 C117.28500366210938,-109.83499908447266 116.18099975585938,-112.94999694824219 114.81800079345703,-117.18000030517578 C113.46399688720703,-121.33999633789062 112.34200286865234,-124.4540023803711 111.4469985961914,-126.5260009765625 C110.02999877929688,-123.99600219726562 109.03099822998047,-122.60800170898438 108.4489974975586,-122.36199951171875 C107.81900024414062,-122.09500122070312 107.1719970703125,-122.10099792480469 106.50800323486328,-122.3759994506836 C105.84400177001953,-122.6520004272461 105.38300323486328,-123.09600067138672 105.12300109863281,-123.70999908447266 C104.80999755859375,-124.4489974975586 105.10700225830078,-125.63400268554688 106.01399993896484,-127.26100158691406 C106.61199951171875,-128.21800231933594 107.40799713134766,-129.68800354003906 108.40699768066406,-131.6699981689453 C109.1989974975586,-133.65699768066406 110.2239990234375,-134.91600036621094 111.48400115966797,-135.44900512695312 C112.53900146484375,-135.89500427246094 113.3219985961914,-135.51400756835938 113.83599853515625,-134.30099487304688 C113.98799896240234,-133.93899536132812 114.16999816894531,-133.3800048828125 114.37799835205078,-132.62399291992188 C114.58699798583984,-131.8679962158203 114.76799774169922,-131.3090057373047 114.91999816894531,-130.94700622558594 C115.14099884033203,-130.427001953125 115.5009994506836,-129.6510009765625 116.00199890136719,-128.62100219726562 C116.50399780273438,-127.58999633789062 116.86499786376953,-126.81500244140625 117.08399963378906,-126.2959976196289 C117.84400177001953,-124.5 118.78700256347656,-121.74500274658203 119.91500091552734,-118.02799987792969 C121.04299926757812,-114.31099700927734 121.98200225830078,-111.56300354003906 122.73500061035156,-109.78500366210938 C123.12100219726562,-108.87200164794922 123.65399932861328,-107.78900146484375 124.33200073242188,-106.53700256347656 C125.01200103759766,-105.28399658203125 125.53500366210938,-104.24299621582031 125.90399932861328,-103.41500091552734 C125.90399932861328,-103.41500091552734 128.36300659179688,-104.51200103759766 128.36300659179688,-104.51200103759766 C129.0229949951172,-104.79199981689453 129.66200256347656,-104.80699920654297 130.2790069580078,-104.55699920654297 C130.8939971923828,-104.30699920654297 131.33999633789062,-103.85900115966797 131.61199951171875,-103.21399688720703 C131.89199829101562,-102.5530014038086 131.90499877929688,-101.91899871826172 131.65199279785156,-101.31099700927734 C131.3990020751953,-100.7030029296875 130.94200134277344,-100.25900268554688 130.281005859375,-99.97899627685547z"></path></g></g><g opacity="1" transform="matrix(1,0,0,1,0,0)"><path fill="rgb(255,255,255)" fill-opacity="1" d=" M160.5019989013672,-38.42300033569336 C160.5019989013672,-38.42300033569336 148.94500732421875,-38.02000045776367 145.98199462890625,-36.93000030517578 C143.0189971923828,-35.84000015258789 129.93299865722656,-30.492000579833984 137.41900634765625,-23.81800079345703 C137.41900634765625,-23.81800079345703 131.20199584960938,-18.118000030517578 137.71200561523438,-15.213000297546387 C137.71200561523438,-15.213000297546387 134.4669952392578,-11.14799976348877 139.19400024414062,-7.741000175476074 C139.19400024414062,-7.741000175476074 136.19500732421875,-5.423999786376953 136.4969940185547,-2.7090001106262207 C136.7989959716797,0.006000000052154064 139.87399291992188,0.9319999814033508 141.4980010986328,0.9419999718666077 C143.8699951171875,0.9570000171661377 149.24000549316406,-2.2139999866485596 149.24000549316406,-2.2139999866485596 C149.24000549316406,-2.2139999866485596 158.48300170898438,7.058000087738037 158.48300170898438,7.058000087738037"></path><path stroke-linecap="round" stroke-linejoin="round" fill-opacity="0" stroke="rgb(3,0,71)" stroke-opacity="1" stroke-width="1.656" d=" M160.5019989013672,-38.42300033569336 C160.5019989013672,-38.42300033569336 148.94500732421875,-38.02000045776367 145.98199462890625,-36.93000030517578 C143.0189971923828,-35.84000015258789 129.93299865722656,-30.492000579833984 137.41900634765625,-23.81800079345703 C137.41900634765625,-23.81800079345703 131.20199584960938,-18.118000030517578 137.71200561523438,-15.213000297546387 C137.71200561523438,-15.213000297546387 134.4669952392578,-11.14799976348877 139.19400024414062,-7.741000175476074 C139.19400024414062,-7.741000175476074 136.19500732421875,-5.423999786376953 136.4969940185547,-2.7090001106262207 C136.7989959716797,0.006000000052154064 139.87399291992188,0.9319999814033508 141.4980010986328,0.9419999718666077 C143.8699951171875,0.9570000171661377 149.24000549316406,-2.2139999866485596 149.24000549316406,-2.2139999866485596 C149.24000549316406,-2.2139999866485596 158.48300170898438,7.058000087738037 158.48300170898438,7.058000087738037"></path></g><g opacity="1" transform="matrix(1,0,0,1,0,0)"><path fill="rgb(255,255,255)" fill-opacity="1" d=" M137.41900634765625,-23.81800079345703 C137.41900634765625,-23.81800079345703 148.2779998779297,-29.604999542236328 148.2779998779297,-29.604999542236328 C149.08200073242188,-30.033000946044922 150.0050048828125,-30.18199920654297 150.9029998779297,-30.027999877929688 C150.9029998779297,-30.027999877929688 163.12100219726562,-27.93600082397461 163.12100219726562,-27.93600082397461"></path><path stroke-linecap="round" stroke-linejoin="round" fill-opacity="0" stroke="rgb(3,0,71)" stroke-opacity="1" stroke-width="1.656" d=" M137.41900634765625,-23.81800079345703 C137.41900634765625,-23.81800079345703 148.2779998779297,-29.604999542236328 148.2779998779297,-29.604999542236328 C149.08200073242188,-30.033000946044922 150.0050048828125,-30.18199920654297 150.9029998779297,-30.027999877929688 C150.9029998779297,-30.027999877929688 163.12100219726562,-27.93600082397461 163.12100219726562,-27.93600082397461"></path></g><g opacity="1" transform="matrix(1,0,0,1,0,0)"><path fill="rgb(255,255,255)" fill-opacity="1" d=" M137.71200561523438,-15.213000297546387 C137.71200561523438,-15.213000297546387 149.9029998779297,-20.291000366210938 149.9029998779297,-20.291000366210938 C151.0050048828125,-20.75 152.2530059814453,-20.70599937438965 153.3209991455078,-20.172000885009766 C153.3209991455078,-20.172000885009766 163.32899475097656,-15.163000106811523 163.32899475097656,-15.163000106811523"></path><path stroke-linecap="round" stroke-linejoin="round" fill-opacity="0" stroke="rgb(3,0,71)" stroke-opacity="1" stroke-width="1.656" d=" M137.71200561523438,-15.213000297546387 C137.71200561523438,-15.213000297546387 149.9029998779297,-20.291000366210938 149.9029998779297,-20.291000366210938 C151.0050048828125,-20.75 152.2530059814453,-20.70599937438965 153.3209991455078,-20.172000885009766 C153.3209991455078,-20.172000885009766 163.32899475097656,-15.163000106811523 163.32899475097656,-15.163000106811523"></path></g><g opacity="1" transform="matrix(1,0,0,1,0,0)"><path fill="rgb(255,255,255)" fill-opacity="1" d=" M139.19400024414062,-7.741000175476074 C139.19400024414062,-7.741000175476074 147.74099731445312,-11.449999809265137 147.74099731445312,-11.449999809265137 C149.9600067138672,-12.413000106811523 152.54200744628906,-11.897000312805176 154.2220001220703,-10.156999588012695 C154.2220001220703,-10.156999588012695 159.7989959716797,-4.379000186920166 159.7989959716797,-4.379000186920166"></path><path stroke-linecap="round" stroke-linejoin="round" fill-opacity="0" stroke="rgb(3,0,71)" stroke-opacity="1" stroke-width="1.656" d=" M139.19400024414062,-7.741000175476074 C139.19400024414062,-7.741000175476074 147.74099731445312,-11.449999809265137 147.74099731445312,-11.449999809265137 C149.9600067138672,-12.413000106811523 152.54200744628906,-11.897000312805176 154.2220001220703,-10.156999588012695 C154.2220001220703,-10.156999588012695 159.7989959716797,-4.379000186920166 159.7989959716797,-4.379000186920166"></path></g></g><g transform="matrix(1,0,0,1,256,256)" opacity="1" style="display: block;"><g opacity="1" transform="matrix(1,0,0,1,0,0)"><path fill="rgb(3,0,71)" fill-opacity="1" d=" M-52.75699996948242,-127.8489990234375 C-52.75699996948242,-127.8489990234375 -35.391998291015625,-125.16600036621094 -25.604000091552734,-112.85199737548828 C-15.815999984741211,-100.53800201416016 -15.657999992370605,-89.98100280761719 -6.816999912261963,-86.41899871826172 C2.0239999294281006,-82.85700225830078 8.022000312805176,-83.1719970703125 14.336999893188477,-75.27899932861328 C20.652000427246094,-67.38600158691406 12.600000381469727,-58.387001037597656 17.336000442504883,-53.6510009765625 C22.07200050354004,-48.915000915527344 41.332000732421875,-46.231998443603516 42.595001220703125,-25.708999633789062 C43.858001708984375,-5.185999870300293 30.7549991607666,11.232000350952148 7.863999843597412,18.809999465942383 C-15.027000427246094,26.38800048828125 -84.1719970703125,-2.3440001010894775 -84.1719970703125,-2.3440001010894775 C-84.1719970703125,-2.3440001010894775 -63.80799865722656,-100.37999725341797 -63.80799865722656,-100.37999725341797 C-63.80799865722656,-100.37999725341797 -52.75699996948242,-127.8489990234375 -52.75699996948242,-127.8489990234375z"></path></g><g opacity="1" transform="matrix(1,0,0,1,0,0)"><path fill="rgb(96,94,253)" fill-opacity="1" d=" M-22.226999282836914,-7.901000022888184 C-22.226999282836914,-7.901000022888184 -7.451000213623047,-10.1899995803833 -7.451000213623047,-10.1899995803833 C0.20499999821186066,-11.37600040435791 8.003999710083008,-9.232999801635742 13.979000091552734,-4.301000118255615 C13.979000091552734,-4.301000118255615 44.13800048828125,20.589000701904297 44.13800048828125,20.589000701904297 C44.13800048828125,20.589000701904297 -18.93199920654297,50.064998626708984 -18.93199920654297,50.064998626708984 C-18.93199920654297,50.064998626708984 -22.226999282836914,-7.901000022888184 -22.226999282836914,-7.901000022888184z"></path></g><g opacity="1" transform="matrix(1,0,0,1,0,0)"><path stroke-linecap="round" stroke-linejoin="round" fill-opacity="0" stroke="rgb(3,0,71)" stroke-opacity="1" stroke-width="1.656" d=" M13.979000091552734,-4.301000118255615 C13.979000091552734,-4.301000118255615 44.13800048828125,20.589000701904297 44.13800048828125,20.589000701904297 C44.13800048828125,20.589000701904297 -18.93199920654297,50.064998626708984 -18.93199920654297,50.064998626708984 C-18.93199920654297,50.064998626708984 -20.65399932861328,19.777999877929688 -20.65399932861328,19.777999877929688"></path></g><g opacity="1" transform="matrix(1,0,0,1,0,0)"><g opacity="1" transform="matrix(1,0,0,1,0,0)"><path fill="rgb(3,0,71)" fill-opacity="1" d=" M44.13800048828125,211.02699279785156 C44.13800048828125,211.02699279785156 26.344999313354492,129.50599670410156 26.344999313354492,129.50599670410156 C26.344999313354492,129.50599670410156 -106.677001953125,145.3730010986328 -106.677001953125,145.3730010986328 C-106.677001953125,145.3730010986328 -100.66300201416016,211.02699279785156 -100.66300201416016,211.02699279785156 C-100.66300201416016,211.02699279785156 44.13800048828125,211.02699279785156 44.13800048828125,211.02699279785156z"></path></g><g opacity="1" transform="matrix(1,0,0,1,0,0)"><path fill="rgb(96,94,253)" fill-opacity="1" d=" M-19.054000854492188,-7.901000022888184 C-19.054000854492188,-7.901000022888184 -106.822998046875,-5.053999900817871 -106.822998046875,-5.053999900817871 C-119.2750015258789,-4.650000095367432 -128.67599487304688,6.386000156402588 -127.09500122070312,18.743999481201172 C-127.09500122070312,18.743999481201172 -109.11499786376953,159.28500366210938 -109.11499786376953,159.28500366210938 C-109.11499786376953,159.28500366210938 34.770999908447266,146.4929962158203 34.770999908447266,146.4929962158203 C34.770999908447266,146.4929962158203 -19.054000854492188,-7.901000022888184 -19.054000854492188,-7.901000022888184z"></path></g><g opacity="1" transform="matrix(1,0,0,1,0,0)"><path fill="rgb(255,255,255)" fill-opacity="1" d=" M-19.086999893188477,61.50299835205078 C-21.41699981689453,71.97100067138672 -33.88399887084961,80.80500030517578 -49.66400146484375,82.28500366210938 C-67.90599822998047,83.98600006103516 -83.64099884033203,75.20700073242188 -84.822998046875,62.66299819946289 C-85.02200317382812,60.48699951171875 -84.77899932861328,58.345001220703125 -84.12699890136719,56.279998779296875 C-81.05699920654297,46.41899871826172 -68.98799896240234,38.28099822998047 -53.90399932861328,36.867000579833984 C-35.6619987487793,35.16699981689453 -19.926000595092773,43.957000732421875 -18.7549991607666,56.4900016784668 C-18.600000381469727,58.191001892089844 -18.711999893188477,59.86899948120117 -19.086999893188477,61.50299835205078z"></path></g><g opacity="1" transform="matrix(1,0,0,1,0,0)"><path stroke-linecap="round" stroke-linejoin="round" fill-opacity="0" stroke="rgb(3,0,71)" stroke-opacity="1" stroke-width="1.656" d=" M34.770999908447266,146.4929962158203 C34.770999908447266,146.4929962158203 -9.98799991607666,18.104000091552734 -9.98799991607666,18.104000091552734"></path></g></g><g opacity="1" transform="matrix(1,0,0,1,0,0)"><g opacity="1" transform="matrix(1,0,0,1,0,0)"><g opacity="1" transform="matrix(1,0,0,1,0,0)"><path fill="rgb(255,255,255)" fill-opacity="1" d=" M-69.44100189208984,159.45199584960938 C-69.8479995727539,160.23399353027344 -70.4729995727539,160.83900451660156 -71.2239990234375,161.21400451660156 C-72.3290023803711,161.78700256347656 -73.74700164794922,162.04800415039062 -74.97799682617188,161.51600646972656 C-74.97799682617188,161.51600646972656 -93.4260025024414,150.0240020751953 -93.4260025024414,150.0240020751953 C-93.4260025024414,150.0240020751953 -81.0999984741211,157.76199340820312 -81.0999984741211,157.76199340820312 C-79.16000366210938,158.8780059814453 -78.51399993896484,161.44400024414062 -79.56700134277344,163.4250030517578 C-79.96299743652344,164.2169952392578 -80.5999984741211,164.81100463867188 -81.36100006103516,165.19700622558594 C-81.36100006103516,165.19700622558594 -81.36000061035156,165.20799255371094 -81.38099670410156,165.21800231933594 C-82.84100341796875,165.968994140625 -84.60299682617188,165.81300354003906 -85.9800033569336,164.94700622558594 C-85.9800033569336,164.94700622558594 -98.0770034790039,157.43899536132812 -98.0770034790039,157.43899536132812 C-98.0770034790039,157.43899536132812 -91.60099792480469,161.50599670410156 -91.60099792480469,161.50599670410156 C-89.63999938964844,162.6320037841797 -89.00499725341797,165.19700622558594 -90.05799865722656,167.18899536132812 C-90.4540023803711,167.9810028076172 -91.08999633789062,168.56500244140625 -91.84100341796875,168.96200561523438 C-92.93599700927734,169.54600524902344 -94.36399841308594,169.78599548339844 -95.59500122070312,169.25399780273438 C-95.59500122070312,169.25399780273438 -125.13899993896484,151.29600524902344 -125.13899993896484,151.29600524902344 C-125.13899993896484,151.29600524902344 -125.22200012207031,151.2550048828125 -125.22200012207031,151.2550048828125 C-125.22200012207031,151.2550048828125 -192.2550048828125,114.44300079345703 -192.2550048828125,114.44300079345703 C-202.08900451660156,109.197998046875 -208.73199462890625,99.46800231933594 -210.02499389648438,88.40399932861328 C-210.18099975585938,87.08000183105469 -210.25399780273438,85.76499938964844 -210.25399780273438,84.45099639892578 C-210.25399780273438,76.0250015258789 -207.11500549316406,67.83899688720703 -201.36900329589844,61.55099868774414 C-201.36900329589844,61.55099868774414 -166.21600341796875,24.510000228881836 -166.21600341796875,24.510000228881836 C-166.21600341796875,24.510000228881836 -133.81500244140625,59.11000061035156 -133.81500244140625,59.11000061035156 C-133.81500244140625,59.11000061035156 -159.48899841308594,83.57499694824219 -159.48899841308594,83.57499694824219 C-159.48899841308594,83.57499694824219 -111.19599914550781,112.71199798583984 -111.19599914550781,112.71199798583984 C-111.19599914550781,112.71199798583984 -111.18599700927734,112.72200012207031 -111.18599700927734,112.72200012207031 C-111.18599700927734,112.72200012207031 -82.13200378417969,120.89800262451172 -82.13200378417969,120.89800262451172 C-79.3479995727539,121.11699676513672 -77.37699890136719,123.7030029296875 -77.94000244140625,126.42500305175781 C-78.23200225830078,127.81199645996094 -79.12899780273438,128.97000122070312 -80.2969970703125,129.5850067138672 C-80.9749984741211,129.91900634765625 -81.7040023803711,130.1060028076172 -82.47599792480469,130.1060028076172 C-82.47599792480469,130.1060028076172 -93.85399627685547,129.00100708007812 -93.85399627685547,129.00100708007812 C-93.85399627685547,129.00100708007812 -71.86000061035156,143.03700256347656 -71.86000061035156,143.03700256347656 C-69.91999816894531,144.1529998779297 -69.21199798583984,146.61500549316406 -70.26499938964844,148.5959930419922 C-70.66100311279297,149.38900756835938 -71.2979965209961,149.98300170898438 -72.03800201416016,150.35800170898438 C-73.14299774169922,150.94200134277344 -74.57099914550781,151.20199584960938 -75.802001953125,150.66000366210938 C-75.802001953125,150.66000366210938 -88.73300170898438,142.5469970703125 -88.73300170898438,142.5469970703125 C-88.73300170898438,142.5469970703125 -71.0469970703125,153.88299560546875 -71.0469970703125,153.88299560546875 C-69.09700012207031,155.00900268554688 -68.38800048828125,157.4600067138672 -69.44100189208984,159.45199584960938z"></path><path stroke-linecap="round" stroke-linejoin="round" fill-opacity="0" stroke="rgb(3,0,71)" stroke-opacity="1" stroke-width="1.656" d=" M-69.44100189208984,159.45199584960938 C-69.8479995727539,160.23399353027344 -70.4729995727539,160.83900451660156 -71.2239990234375,161.21400451660156 C-72.3290023803711,161.78700256347656 -73.74700164794922,162.04800415039062 -74.97799682617188,161.51600646972656 C-74.97799682617188,161.51600646972656 -93.4260025024414,150.0240020751953 -93.4260025024414,150.0240020751953 C-93.4260025024414,150.0240020751953 -81.0999984741211,157.76199340820312 -81.0999984741211,157.76199340820312 C-79.16000366210938,158.8780059814453 -78.51399993896484,161.44400024414062 -79.56700134277344,163.4250030517578 C-79.96299743652344,164.2169952392578 -80.5999984741211,164.81100463867188 -81.36100006103516,165.19700622558594 C-81.36100006103516,165.19700622558594 -81.36000061035156,165.20799255371094 -81.38099670410156,165.21800231933594 C-82.84100341796875,165.968994140625 -84.60299682617188,165.81300354003906 -85.9800033569336,164.94700622558594 C-85.9800033569336,164.94700622558594 -98.0770034790039,157.43899536132812 -98.0770034790039,157.43899536132812 C-98.0770034790039,157.43899536132812 -91.60099792480469,161.50599670410156 -91.60099792480469,161.50599670410156 C-89.63999938964844,162.6320037841797 -89.00499725341797,165.19700622558594 -90.05799865722656,167.18899536132812 C-90.4540023803711,167.9810028076172 -91.08999633789062,168.56500244140625 -91.84100341796875,168.96200561523438 C-92.93599700927734,169.54600524902344 -94.36399841308594,169.78599548339844 -95.59500122070312,169.25399780273438 C-95.59500122070312,169.25399780273438 -125.13899993896484,151.29600524902344 -125.13899993896484,151.29600524902344 C-125.13899993896484,151.29600524902344 -125.22200012207031,151.2550048828125 -125.22200012207031,151.2550048828125 C-125.22200012207031,151.2550048828125 -192.2550048828125,114.44300079345703 -192.2550048828125,114.44300079345703 C-202.08900451660156,109.197998046875 -208.73199462890625,99.46800231933594 -210.02499389648438,88.40399932861328 C-210.18099975585938,87.08000183105469 -210.25399780273438,85.76499938964844 -210.25399780273438,84.45099639892578 C-210.25399780273438,76.0250015258789 -207.11500549316406,67.83899688720703 -201.36900329589844,61.55099868774414 C-201.36900329589844,61.55099868774414 -166.21600341796875,24.510000228881836 -166.21600341796875,24.510000228881836 C-166.21600341796875,24.510000228881836 -133.81500244140625,59.11000061035156 -133.81500244140625,59.11000061035156 C-133.81500244140625,59.11000061035156 -159.48899841308594,83.57499694824219 -159.48899841308594,83.57499694824219 C-159.48899841308594,83.57499694824219 -111.19599914550781,112.71199798583984 -111.19599914550781,112.71199798583984 C-111.19599914550781,112.71199798583984 -111.18599700927734,112.72200012207031 -111.18599700927734,112.72200012207031 C-111.18599700927734,112.72200012207031 -82.13200378417969,120.89800262451172 -82.13200378417969,120.89800262451172 C-79.3479995727539,121.11699676513672 -77.37699890136719,123.7030029296875 -77.94000244140625,126.42500305175781 C-78.23200225830078,127.81199645996094 -79.12899780273438,128.97000122070312 -80.2969970703125,129.5850067138672 C-80.9749984741211,129.91900634765625 -81.7040023803711,130.1060028076172 -82.47599792480469,130.1060028076172 C-82.47599792480469,130.1060028076172 -93.85399627685547,129.00100708007812 -93.85399627685547,129.00100708007812 C-93.85399627685547,129.00100708007812 -71.86000061035156,143.03700256347656 -71.86000061035156,143.03700256347656 C-69.91999816894531,144.1529998779297 -69.21199798583984,146.61500549316406 -70.26499938964844,148.5959930419922 C-70.66100311279297,149.38900756835938 -71.2979965209961,149.98300170898438 -72.03800201416016,150.35800170898438 C-73.14299774169922,150.94200134277344 -74.57099914550781,151.20199584960938 -75.802001953125,150.66000366210938 C-75.802001953125,150.66000366210938 -88.73300170898438,142.5469970703125 -88.73300170898438,142.5469970703125 C-88.73300170898438,142.5469970703125 -71.0469970703125,153.88299560546875 -71.0469970703125,153.88299560546875 C-69.09700012207031,155.00900268554688 -68.38800048828125,157.4600067138672 -69.44100189208984,159.45199584960938z"></path></g></g></g><g opacity="1" transform="matrix(1,0,0,1,0,0)"><path fill="rgb(96,94,253)" fill-opacity="1" d=" M-104.0479965209961,-5.144000053405762 C-104.0479965209961,-5.144000053405762 -129.58799743652344,-3.4600000381469727 -129.58799743652344,-3.4600000381469727 C-133.9810028076172,-3.1700000762939453 -138.2480010986328,-1.86899995803833 -142.05599975585938,0.3409999907016754 C-142.05599975585938,0.3409999907016754 -175.44000244140625,23.34000015258789 -175.44000244140625,23.34000015258789 C-175.44000244140625,23.34000015258789 -133.70399475097656,65.44100189208984 -133.70399475097656,65.44100189208984 C-133.70399475097656,65.44100189208984 -107.66100311279297,46.792999267578125 -107.66100311279297,46.792999267578125 C-96.79900360107422,39.01499938964844 -92.55400085449219,24.88800048828125 -97.3290023803711,12.41100025177002 C-97.3290023803711,12.41100025177002 -104.0479965209961,-5.144000053405762 -104.0479965209961,-5.144000053405762z"></path></g><g opacity="1" transform="matrix(1,0,0,1,0,0)"><path stroke-linecap="round" stroke-linejoin="round" fill-opacity="0" stroke="rgb(3,0,71)" stroke-opacity="1" stroke-width="1.656" d=" M-142.05599975585938,0.3409999907016754 C-142.05599975585938,0.3409999907016754 -175.44000244140625,23.34000015258789 -175.44000244140625,23.34000015258789 C-175.44000244140625,23.34000015258789 -133.70399475097656,65.44100189208984 -133.70399475097656,65.44100189208984 C-133.70399475097656,65.44100189208984 -104.68800354003906,44.66400146484375 -104.68800354003906,44.66400146484375"></path></g><g opacity="1" transform="matrix(1,0,0,1,0,0)"><path fill="rgb(255,255,255)" fill-opacity="1" d=" M-47.808998107910156,-2.697000026702881 C-47.808998107910156,-2.697000026702881 -49.584999084472656,-42.35599899291992 -49.584999084472656,-42.35599899291992 C-49.584999084472656,-42.35599899291992 -86.49199676513672,-50.047000885009766 -86.49199676513672,-50.047000885009766 C-86.49199676513672,-50.047000885009766 -88.04100036621094,-2.8980000019073486 -88.04100036621094,-2.8980000019073486 C-88.04100036621094,-2.8980000019073486 -78.63800048828125,12.00100040435791 -61.54100036621094,11.03600025177002 C-47.797000885009766,10.260000228881836 -47.808998107910156,-2.697000026702881 -47.808998107910156,-2.697000026702881z"></path><path stroke-linecap="round" stroke-linejoin="round" fill-opacity="0" stroke="rgb(3,0,71)" stroke-opacity="1" stroke-width="1.656" d=" M-47.808998107910156,-2.697000026702881 C-47.808998107910156,-2.697000026702881 -49.584999084472656,-42.35599899291992 -49.584999084472656,-42.35599899291992 C-49.584999084472656,-42.35599899291992 -86.49199676513672,-50.047000885009766 -86.49199676513672,-50.047000885009766 C-86.49199676513672,-50.047000885009766 -88.04100036621094,-2.8980000019073486 -88.04100036621094,-2.8980000019073486 C-88.04100036621094,-2.8980000019073486 -78.63800048828125,12.00100040435791 -61.54100036621094,11.03600025177002 C-47.797000885009766,10.260000228881836 -47.808998107910156,-2.697000026702881 -47.808998107910156,-2.697000026702881z"></path></g><g opacity="1" transform="matrix(1,0,0,1,0,0)"><path fill="rgb(255,255,255)" fill-opacity="1" d=" M-86.93299865722656,-44.685001373291016 C-104.43900299072266,-63.599998474121094 -100.49700164794922,-94.52400207519531 -100.49700164794922,-94.52400207519531 C-100.49700164794922,-94.52400207519531 -48.020999908447266,-116.4530029296875 -48.020999908447266,-116.4530029296875 C-47.04600143432617,-115.65399932861328 -27.257999420166016,-99.5510025024414 -23.868999481201172,-67.15499877929688 C-21.07699966430664,-40.46500015258789 -46.65299987792969,-25.440000534057617 -74.02100372314453,-35.500999450683594"></path><path stroke-linecap="round" stroke-linejoin="round" fill-opacity="0" stroke="rgb(3,0,71)" stroke-opacity="1" stroke-width="1.656" d=" M-86.93299865722656,-44.685001373291016 C-104.43900299072266,-63.599998474121094 -100.49700164794922,-94.52400207519531 -100.49700164794922,-94.52400207519531 C-100.49700164794922,-94.52400207519531 -48.020999908447266,-116.4530029296875 -48.020999908447266,-116.4530029296875 C-47.04600143432617,-115.65399932861328 -27.257999420166016,-99.5510025024414 -23.868999481201172,-67.15499877929688 C-21.07699966430664,-40.46500015258789 -46.65299987792969,-25.440000534057617 -74.02100372314453,-35.500999450683594"></path></g><g opacity="1" transform="matrix(1,0,0,1,0,0)"><path fill="rgb(3,0,71)" fill-opacity="1" d=" M-89.14600372314453,-74.40499877929688 C-89.14600372314453,-74.40499877929688 -61.43899917602539,-92.802001953125 -50.70399856567383,-110.95700073242188 C-50.70399856567383,-110.95700073242188 -40.71799850463867,-109.3270034790039 -38.20000076293945,-105.59200286865234 C-38.20000076293945,-105.59200286865234 -35.07600021362305,-122.95500183105469 -52.75699996948242,-127.8489990234375 C-70.43800354003906,-132.7429962158203 -111.01000213623047,-119.16699981689453 -117.16699981689453,-94.8550033569336 C-121.21499633789062,-78.86900329589844 -120.78199768066406,-43.40399932861328 -120.01100158691406,-20.98900032043457 C-119.63700103759766,-10.109999656677246 -110.40399932861328,-1.6629999876022339 -99.53500366210938,-2.263000011444092 C-99.53500366210938,-2.263000011444092 -88.04100036621094,-2.8980000019073486 -88.04100036621094,-2.8980000019073486 C-88.04100036621094,-2.8980000019073486 -85.74800109863281,-43.22200012207031 -85.74800109863281,-43.22200012207031 C-95.55899810791016,-52.20000076293945 -93.08300018310547,-63.183998107910156 -89.14600372314453,-74.40499877929688z"></path></g><g opacity="1" transform="matrix(1,0,0,1,0,0)"><path fill="rgb(255,255,255)" fill-opacity="1" d=" M-38.20000076293945,-87.53299713134766 C-40.650001525878906,-88.24700164794922 -43.38600158691406,-87.2770004272461 -45.14099884033203,-85.072998046875"></path><path stroke-linecap="round" stroke-linejoin="round" fill-opacity="0" stroke="rgb(3,0,71)" stroke-opacity="1" stroke-width="1.656" d=" M-38.20000076293945,-87.53299713134766 C-40.650001525878906,-88.24700164794922 -43.38600158691406,-87.2770004272461 -45.14099884033203,-85.072998046875"></path></g><g opacity="1" transform="matrix(1,0,0,1,0.5,0)"><g opacity="1" transform="matrix(1,0,0,1,0,0)"><path fill="rgb(3,0,71)" fill-opacity="1" d=" M-41.87300109863281,-79.49600219726562 C-41.263999938964844,-77.61299896240234 -39.74599838256836,-76.41799926757812 -38.483001708984375,-76.8270034790039 C-37.220001220703125,-77.23600006103516 -36.691001892089844,-79.09300231933594 -37.29999923706055,-80.97599792480469 C-37.909000396728516,-82.85900115966797 -39.426998138427734,-84.05400085449219 -40.689998626708984,-83.6449966430664 C-41.952999114990234,-83.23600006103516 -42.481998443603516,-81.37899780273438 -41.87300109863281,-79.49600219726562z"></path></g><g opacity="1" transform="matrix(1,0,0,1,0,0)"><path fill="rgb(3,0,71)" fill-opacity="1" d=" M-62.57899856567383,-70.77100372314453 C-62.27199935913086,-68.81600189208984 -60.95899963378906,-67.39800262451172 -59.64799880981445,-67.60399627685547 C-58.33700180053711,-67.80999755859375 -57.52299880981445,-69.56099700927734 -57.83000183105469,-71.51599884033203 C-58.137001037597656,-73.47100067138672 -59.44900131225586,-74.88899993896484 -60.7599983215332,-74.68299865722656 C-62.07099914550781,-74.47699737548828 -62.88600158691406,-72.72599792480469 -62.57899856567383,-70.77100372314453z"></path></g></g><g opacity="1" transform="matrix(1,0,0,1,0,0)"><path fill="rgb(255,255,255)" fill-opacity="1" d=" M-58.59600067138672,-78.39399719238281 C-61.02299880981445,-79.18199920654297 -63.7869987487793,-78.2959976196289 -65.60900115966797,-76.14700317382812"></path><path stroke-linecap="round" stroke-linejoin="round" fill-opacity="0" stroke="rgb(3,0,71)" stroke-opacity="1" stroke-width="1.656" d=" M-58.59600067138672,-78.39399719238281 C-61.02299880981445,-79.18199920654297 -63.7869987487793,-78.2959976196289 -65.60900115966797,-76.14700317382812"></path></g><g opacity="1" transform="matrix(1,0,0,1,0,0)"><path fill="rgb(255,255,255)" fill-opacity="1" d=" M-87.3010025024414,-72.99700164794922 C-87.3010025024414,-72.99700164794922 -99.3489990234375,-82.89700317382812 -105.28399658203125,-80.12300109863281 C-111.21900177001953,-77.3489990234375 -106.78399658203125,-55.90999984741211 -99.28600311279297,-54.59199905395508 C-91.78800201416016,-53.27399826049805 -86.19499969482422,-56.73899841308594 -86.19499969482422,-56.73899841308594"></path><path stroke-linecap="round" stroke-linejoin="round" fill-opacity="0" stroke="rgb(3,0,71)" stroke-opacity="1" stroke-width="1.656" d=" M-87.3010025024414,-72.99700164794922 C-87.3010025024414,-72.99700164794922 -99.3489990234375,-82.89700317382812 -105.28399658203125,-80.12300109863281 C-111.21900177001953,-77.3489990234375 -106.78399658203125,-55.90999984741211 -99.28600311279297,-54.59199905395508 C-91.78800201416016,-53.27399826049805 -86.19499969482422,-56.73899841308594 -86.19499969482422,-56.73899841308594"></path></g><g opacity="1" transform="matrix(1,0,0,1,0,0)"><path stroke-linecap="round" stroke-linejoin="round" fill-opacity="0" stroke="rgb(3,0,71)" stroke-opacity="1" stroke-width="1.656" d=" M-95.1780014038086,-69.39099884033203 C-95.69000244140625,-70.14299774169922 -96.36000061035156,-70.78800201416016 -97.13099670410156,-71.2699966430664 C-97.61499786376953,-71.5719985961914 -98.1510009765625,-71.81500244140625 -98.71900177001953,-71.86599731445312 C-99.28700256347656,-71.91699981689453 -99.89299774169922,-71.75399780273438 -100.29000091552734,-71.34500122070312 C-100.85199737548828,-70.76499938964844 -100.87999725341797,-69.85900115966797 -100.78399658203125,-69.05699920654297 C-100.60800170898438,-67.59500122070312 -100.12999725341797,-66.16899871826172 -99.38899993896484,-64.89600372314453"></path></g><g opacity="1" transform="matrix(1,0,0,1,0,0)"><path fill="rgb(255,255,255)" fill-opacity="1" d=" M-47.808998107910156,-73.71499633789062 C-46.28200149536133,-71.2979965209961 -44.75699996948242,-68.87999725341797 -43.22999954223633,-66.46299743652344 C-42.308998107910156,-65.00499725341797 -41.36800003051758,-63.486000061035156 -41.29999923706055,-61.81100082397461 C-41.231998443603516,-60.13600158691406 -42.30500030517578,-58.2599983215332 -44.24599838256836,-57.707000732421875"></path><path stroke-linecap="round" stroke-linejoin="round" fill-opacity="0" stroke="rgb(3,0,71)" stroke-opacity="1" stroke-width="1.656" d=" M-47.808998107910156,-73.71499633789062 C-46.28200149536133,-71.2979965209961 -44.75699996948242,-68.87999725341797 -43.22999954223633,-66.46299743652344 C-42.308998107910156,-65.00499725341797 -41.36800003051758,-63.486000061035156 -41.29999923706055,-61.81100082397461 C-41.231998443603516,-60.13600158691406 -42.30500030517578,-58.2599983215332 -44.24599838256836,-57.707000732421875"></path></g><g opacity="1" transform="matrix(1,0,0,1,0,0)"><path stroke-linecap="round" stroke-linejoin="round" fill-opacity="0" stroke="rgb(3,0,71)" stroke-opacity="1" stroke-width="1.656" d=" M-60.06399917602539,-52.52799987792969 C-58.97600173950195,-50.28499984741211 -56.97600173950195,-48.5 -54.624000549316406,-47.67399978637695 C-52.27199935913086,-46.847999572753906 -49.595001220703125,-46.9900016784668 -47.34400177001953,-48.06100082397461"></path></g><g opacity="1" transform="matrix(1,0,0,1,0,0)"><path fill="rgb(255,255,255)" fill-opacity="1" d=" M-159.48899841308594,83.57499694824219 C-159.48899841308594,83.57499694824219 -168.05499267578125,78.07099914550781 -168.05499267578125,78.07099914550781"></path><path stroke-linecap="round" stroke-linejoin="round" fill-opacity="0" stroke="rgb(3,0,71)" stroke-opacity="1" stroke-width="1.656" d=" M-159.48899841308594,83.57499694824219 C-159.48899841308594,83.57499694824219 -168.05499267578125,78.07099914550781 -168.05499267578125,78.07099914550781"></path></g></g><g transform="matrix(1,0,0,1,256,256)" opacity="1" style="display: block;"><g opacity="1" transform="matrix(1,0,0,1,0,0)"><path stroke-linecap="round" stroke-linejoin="round" fill-opacity="0" stroke="rgb(3,0,71)" stroke-opacity="1" stroke-width="1.656" d=" M25.45800018310547,-165.0989990234375 C21.79599952697754,-164.72900390625 18.003999710083008,-165.8780059814453 15.164999961853027,-168.22000122070312 C13.456999778747559,-169.62899780273438 12.017999649047852,-171.70599365234375 12.315999984741211,-173.89999389648438 C12.61400032043457,-176.093994140625 15.423999786376953,-177.8159942626953 17.17099952697754,-176.45599365234375 C18.753000259399414,-175.2239990234375 18.238000869750977,-172.51400756835938 16.690000534057617,-171.24099731445312 C15.142000198364258,-169.96800231933594 13.012999534606934,-169.73300170898438 11.017000198364258,-169.55099487304688 C5.754000186920166,-169.07000732421875 0.3799999952316284,-168.5959930419922 -4.760000228881836,-169.82200622558594 C-9.899999618530273,-171.04800415039062 -14.859000205993652,-174.2969970703125 -16.725000381469727,-179.24099731445312"></path></g></g><g transform="matrix(1,0,0,1,256,256)" opacity="1" style="display: block;"><g opacity="1" transform="matrix(1,0,0,1,0,0)"><path stroke-linecap="round" stroke-linejoin="round" fill-opacity="0" stroke="rgb(3,0,71)" stroke-opacity="1" stroke-width="1.656" d=" M30.812000274658203,-208.11599731445312 C33.361000061035156,-211.76199340820312 38.823001861572266,-212.6269989013672 42.790000915527344,-210.61300659179688 C46.75699996948242,-208.5989990234375 49.20899963378906,-204.27699279785156 49.80099868774414,-199.8679962158203 C50.060001373291016,-197.94000244140625 49.99300003051758,-195.91299438476562 49.191001892089844,-194.14100646972656 C48.388999938964844,-192.36900329589844 46.750999450683594,-190.89700317382812 44.81800079345703,-190.6750030517578 C42.8849983215332,-190.4530029296875 40.78499984741211,-191.74099731445312 40.43600082397461,-193.65499877929688 C40.016998291015625,-195.9530029296875 42.08599853515625,-198.02499389648438 44.284000396728516,-198.8179931640625 C47.362998962402344,-199.9290008544922 50.992000579833984,-199.35699462890625 53.57899856567383,-197.3520050048828 C56.16600036621094,-195.3470001220703 57.625999450683594,-191.9739990234375 57.31800079345703,-188.71600341796875"></path></g></g><g transform="matrix(1,0,0,1,256,256)" opacity="1" style="display: block;"><g opacity="1" transform="matrix(1,0,0,1,0,0)"><path stroke-linecap="round" stroke-linejoin="round" fill-opacity="0" stroke="rgb(3,0,71)" stroke-opacity="1" stroke-width="1.656" d=" M175.0749969482422,-62.37099838256836 C181.7550048828125,-62.1150016784668 188.38800048828125,-66.29299926757812 191.04200744628906,-72.42900085449219 C192.17100524902344,-75.04000091552734 192.60000610351562,-78.10099792480469 191.48899841308594,-80.72000122070312 C190.3780059814453,-83.33899688720703 187.43899536132812,-85.27300262451172 184.6719970703125,-84.60900115966797 C183.63400268554688,-84.36000061035156 182.64999389648438,-83.73699951171875 182.1479949951172,-82.79499816894531 C181.64599609375,-81.85299682617188 181.7169952392578,-80.58399963378906 182.45799255371094,-79.81500244140625 C183.69200134277344,-78.53500366210938 185.86399841308594,-79.18199920654297 187.34800720214844,-80.16100311279297 C191.3459930419922,-82.79900360107422 194.02999877929688,-87.33599853515625 194.4149932861328,-92.11000061035156 C194.8000030517578,-96.88400268554688 192.87899780273438,-101.79299926757812 189.3560028076172,-105.03800201416016"></path></g></g><g transform="matrix(1,0,0,1,255.99998474121094,255.99998474121094)" opacity="1" style="display: block;"><g opacity="1" transform="matrix(1,0,0,1,0,0)"><path stroke-linecap="round" stroke-linejoin="round" fill-opacity="0" stroke="rgb(3,0,71)" stroke-opacity="1" stroke-width="1.656" d=" M103.48500061035156,99.49299621582031 C107.21900177001953,105.66600036621094 107.5989990234375,113.73699951171875 104.45999908447266,120.23300170898438 C103.33599853515625,122.55899810791016 101.69400024414062,124.76599884033203 99.35399627685547,125.85900115966797 C97.01399993896484,126.9520034790039 93.88500213623047,126.62699890136719 92.28399658203125,124.5999984741211 C90.68299865722656,122.572998046875 91.51799774169922,118.93699645996094 94.02400207519531,118.30999755859375 C95.41999816894531,117.96099853515625 96.93000030517578,118.56900024414062 97.95800018310547,119.57599639892578 C98.98600006103516,120.58300018310547 99.60299682617188,121.93499755859375 100.05999755859375,123.30000305175781 C101.822998046875,128.5590057373047 101.47000122070312,134.4949951171875 99.09700012207031,139.50900268554688 C96.7239990234375,144.5229949951172 92.35600280761719,148.5590057373047 87.1709976196289,150.5290069580078"></path></g></g><g transform="matrix(1,0,0,1,256,256)" opacity="1" style="display: block;"><g opacity="1" transform="matrix(1,0,0,1,0,0)"><path stroke-linecap="round" stroke-linejoin="round" fill-opacity="0" stroke="rgb(3,0,71)" stroke-opacity="1" stroke-width="1.656" d=" M-203.83900451660156,146.03599548339844 C-206.8159942626953,151.8800048828125 -207.18299865722656,159.13699340820312 -204.23399353027344,164.9949951171875 C-201.28500366210938,170.85299682617188 -194.8800048828125,174.97500610351562 -188.3300018310547,174.63400268554688 C-181.77999877929688,174.29299926757812 -175.62399291992188,169.13800048828125 -174.68600463867188,162.64700317382812 C-174.1739959716797,159.10299682617188 -175.66600036621094,154.8470001220703 -179.11000061035156,153.86500549316406 C-181.54299926757812,153.17100524902344 -184.16799926757812,154.343994140625 -186.03599548339844,156.0500030517578 C-190.64700317382812,160.26199340820312 -191.6280059814453,167.61599731445312 -189.08900451660156,173.32200622558594 C-186.5500030517578,179.0279998779297 -180.9980010986328,183.05499267578125 -174.9709930419922,184.6909942626953 C-168.94400024414062,186.32699584960938 -162.49400329589844,185.78199768066406 -156.45799255371094,184.177001953125"></path></g></g></g></svg>